<svg xmlns="http://www.w3.org/2000/svg" xmlns:xlink="http://www.w3.org/1999/xlink" width="500" zoomAndPan="magnify" viewBox="0 0 375 374.999991" height="500" preserveAspectRatio="xMidYMid meet" version="1.0"><defs><clipPath id="id1"><path d="M 37.5 37.5 L 340.265625 37.5 L 340.265625 340.261719 L 37.5 340.261719 Z M 37.5 37.5 " clip-rule="nonzero"/></clipPath><clipPath id="id2"><path d="M 187.789062 37.5 L 340.265625 37.5 L 340.265625 340.261719 L 187.789062 340.261719 Z M 187.789062 37.5 " clip-rule="nonzero"/></clipPath></defs><g clip-path="url(#id1)"><path fill="#000000" d="M 188.882812 37.5 C 105.242188 37.5 37.5 105.242188 37.5 188.882812 C 37.5 272.519531 105.242188 340.265625 188.882812 340.265625 C 272.519531 340.265625 340.265625 272.519531 340.265625 188.882812 C 340.265625 105.242188 272.519531 37.5 188.882812 37.5 Z M 188.882812 309.988281 C 121.972656 309.988281 67.777344 255.792969 67.777344 188.882812 C 67.777344 121.972656 121.972656 67.777344 188.882812 67.777344 C 255.792969 67.777344 309.988281 121.972656 309.988281 188.882812 C 309.988281 255.792969 255.792969 309.988281 188.882812 309.988281 Z M 188.882812 309.988281 " fill-opacity="1" fill-rule="nonzero"/></g><g clip-path="url(#id2)"><path fill="#6ce5e8" d="M 188.882812 37.5 C 105.242188 37.5 37.5 105.242188 37.5 188.882812 C 37.5 272.519531 105.242188 340.265625 188.882812 340.265625 C 272.519531 340.265625 340.265625 272.519531 340.265625 188.882812 C 340.265625 105.242188 272.519531 37.5 188.882812 37.5 Z M 188.882812 309.988281 C 121.972656 309.988281 67.777344 255.792969 67.777344 188.882812 C 67.777344 121.972656 121.972656 67.777344 188.882812 67.777344 C 255.792969 67.777344 309.988281 121.972656 309.988281 188.882812 C 309.988281 255.792969 255.792969 309.988281 188.882812 309.988281 Z M 188.882812 309.988281 " fill-opacity="1" fill-rule="nonzero"/></g></svg>